<?xml version="1.0" encoding="utf-8"?>
<!-- Generator: Adobe Illustrator 21.1.0, SVG Export Plug-In . SVG Version: 6.00 Build 0)  -->
<svg version="1.1" id="Layer_1" xmlns="http://www.w3.org/2000/svg" xmlns:xlink="http://www.w3.org/1999/xlink" x="0px" y="0px"
	 viewBox="0 0 841.9 595.3" style="enable-background:new 0 0 841.9 595.3;" xml:space="preserve">
<style type="text/css">
	.st0{fill:none;}
	.st1{font-family:'IstokWeb-Bold';}
	.st2{font-size:95.3571px;}
	.st3{font-family:'Raleway-ExtraLight';}
	.st4{font-size:35.3174px;}
</style>
<rect x="194.3" y="256.7" class="st0" width="396.3" height="106.2"/>
<text transform="matrix(1 0 0 1 219.0007 325.4933)" class="st1 st2">Funzige </text>
<path d="M225.7,258.1c0,0-16.9-6.9-25.4,6.6c0,0-6,7.4,3.4,11.7c0,0,6.7,2.3,8.3-7.1C212,269.2,212.3,258.9,225.7,258.1z"/>
<path d="M226.9,255.4c0,0-17.4-5.5-15.4-21.3c0,0,0.1-9.5,10.1-6.8c0,0,6.6,2.5,1.9,10.8C223.5,238.1,217.1,246.2,226.9,255.4z"/>
<path d="M228.5,254.9c0,0-5.9-17.2,8-25c0,0,7.8-5.6,11.5,4.1c0,0,1.9,6.8-7.6,7.9C240.4,241.9,230.1,241.5,228.5,254.9z"/>
<rect x="321.6" y="331.6" class="st0" width="128.9" height="34.1"/>
<text transform="matrix(1 0 0 1 322.178 357.4225)" class="st3 st4">Designs</text>
</svg>
